<svg width="30" height="26" viewBox="0 0 30 26" fill="none" xmlns="http://www.w3.org/2000/svg">
<g id="Ic_auto_soft">
<path id="Vector" d="M12 6V1H7.59998" stroke="#808080" stroke-width="2" stroke-linecap="round" stroke-linejoin="round"/>
<path id="Vector_2" d="M18.6002 6H5.4002C4.18517 6 3.2002 7.11929 3.2002 8.5V18.5C3.2002 19.8807 4.18517 21 5.4002 21H18.6002C19.8152 21 20.8002 19.8807 20.8002 18.5V8.5C20.8002 7.11929 19.8152 6 18.6002 6Z" stroke="#808080" stroke-width="2" stroke-linecap="round" stroke-linejoin="round"/>
<path id="Vector_3" d="M1 13.5H3.2M20.8 13.5H23M15.3 12.25V14.75M8.7 12.25V14.75" stroke="#808080" stroke-width="2" stroke-linecap="round" stroke-linejoin="round"/>
<path id="Vector_4" d="M18.4457 20.8171L17.7992 25.2848L21.7766 23.1494L22.0066 23.0259L22.2394 23.1441L26.3132 25.2121L25.4243 20.7883L25.3716 20.526L25.5606 20.3366L28.724 17.1669L24.1962 16.5478L23.9415 16.513L23.8216 16.2855L21.6915 12.2429L19.7947 16.2993L19.6814 16.5417L19.4169 16.5819L14.956 17.2597L18.2924 20.3804L18.4831 20.5587L18.4457 20.8171ZM28.8104 17.1787L28.8102 17.1787L28.8104 17.1787Z" fill="#808080" stroke="#E4E4EF"/>
</g>
</svg>
