<svg width="28" height="25" viewBox="0 0 28 25" fill="none" xmlns="http://www.w3.org/2000/svg">
<path d="M3.30769 11.7681V8.69076C3.30769 8.28268 3.46978 7.89132 3.7583 7.60277C4.04681 7.31421 4.43813 7.1521 4.84615 7.1521H19.4615C19.8696 7.1521 20.2609 7.31421 20.5494 7.60277C20.8379 7.89132 21 8.28268 21 8.69076V19.4613C21 19.8694 20.8379 20.2608 20.5494 20.5493C20.2609 20.8379 19.8696 21 19.4615 21H4.84615C4.43813 21 4.04681 20.8379 3.7583 20.5493C3.46978 20.2608 3.30769 19.8694 3.30769 19.4613V15.6147M15.8615 3.30546L7.13846 1.02825C7.04044 1.00063 6.93784 0.993161 6.83685 1.00629C6.73586 1.01942 6.63858 1.05288 6.55088 1.10464C6.46317 1.15641 6.38686 1.22541 6.32656 1.30748C6.26625 1.38956 6.2232 1.483 6.2 1.58217L5.76923 3.30546" stroke="#808080" stroke-width="1.85714" stroke-linecap="round" stroke-linejoin="round"/>
<path d="M1.76914 11.7681H5.61529C6.04013 11.7681 6.38452 12.1126 6.38452 12.5375V14.8455C6.38452 15.2703 6.04013 15.6148 5.61529 15.6148H1.76914C1.3443 15.6148 0.999906 15.2703 0.999906 14.8455V12.5375C0.999906 12.1126 1.3443 11.7681 1.76914 11.7681Z" stroke="#808080" stroke-width="1.85714" stroke-linecap="round" stroke-linejoin="round"/>
<mask id="path-3-inside-1_1152_2767" fill="white">
<path d="M15.4891 24.7369C15.4181 24.6885 15.362 24.6213 15.3272 24.5433C15.2924 24.4652 15.2803 24.3794 15.2924 24.2958L15.9509 19.7455L12.535 16.5506C12.4731 16.4925 12.4283 16.4187 12.4059 16.3375C12.3835 16.2563 12.3843 16.171 12.4081 16.0912C12.432 16.0113 12.478 15.9402 12.541 15.8857C12.604 15.8313 12.6815 15.7957 12.7646 15.7831L17.3417 15.0875L19.2821 10.938C19.3174 10.8627 19.3734 10.7991 19.4439 10.7544C19.5143 10.7097 19.5963 10.6858 19.6807 10.6852C19.765 10.6846 19.8483 10.7075 19.9212 10.7512C19.9941 10.7949 20.0536 10.8577 20.0931 10.9325L22.264 15.0524L26.8779 15.6833C26.9618 15.6947 27.0412 15.7291 27.1073 15.7827C27.1733 15.8362 27.2234 15.9067 27.2517 15.9862C27.2801 16.0657 27.2856 16.151 27.2677 16.2325C27.2498 16.3141 27.2092 16.3885 27.1504 16.4475L23.9145 19.6898L24.8266 24.229C24.8431 24.3115 24.8362 24.3964 24.8065 24.4743C24.7768 24.5521 24.7257 24.6197 24.6587 24.6694C24.5918 24.7191 24.5118 24.749 24.4278 24.7556C24.3438 24.7622 24.2591 24.7453 24.1833 24.7069L20.0131 22.5899L15.9622 24.7648C15.8893 24.8039 15.8066 24.822 15.7231 24.8171C15.6396 24.8122 15.5586 24.7844 15.4891 24.7369Z"/>
</mask>
<path d="M15.4891 24.7369C15.4181 24.6885 15.362 24.6213 15.3272 24.5433C15.2924 24.4652 15.2803 24.3794 15.2924 24.2958L15.9509 19.7455L12.535 16.5506C12.4731 16.4925 12.4283 16.4187 12.4059 16.3375C12.3835 16.2563 12.3843 16.171 12.4081 16.0912C12.432 16.0113 12.478 15.9402 12.541 15.8857C12.604 15.8313 12.6815 15.7957 12.7646 15.7831L17.3417 15.0875L19.2821 10.938C19.3174 10.8627 19.3734 10.7991 19.4439 10.7544C19.5143 10.7097 19.5963 10.6858 19.6807 10.6852C19.765 10.6846 19.8483 10.7075 19.9212 10.7512C19.9941 10.7949 20.0536 10.8577 20.0931 10.9325L22.264 15.0524L26.8779 15.6833C26.9618 15.6947 27.0412 15.7291 27.1073 15.7827C27.1733 15.8362 27.2234 15.9067 27.2517 15.9862C27.2801 16.0657 27.2856 16.151 27.2677 16.2325C27.2498 16.3141 27.2092 16.3885 27.1504 16.4475L23.9145 19.6898L24.8266 24.229C24.8431 24.3115 24.8362 24.3964 24.8065 24.4743C24.7768 24.5521 24.7257 24.6197 24.6587 24.6694C24.5918 24.7191 24.5118 24.749 24.4278 24.7556C24.3438 24.7622 24.2591 24.7453 24.1833 24.7069L20.0131 22.5899L15.9622 24.7648C15.8893 24.8039 15.8066 24.822 15.7231 24.8171C15.6396 24.8122 15.5586 24.7844 15.4891 24.7369Z" fill="#808080"/>
<path d="M15.4891 24.7369L16.0531 23.9111L16.0535 23.9114L15.4891 24.7369ZM15.2924 24.2958L14.3027 24.1527L14.3027 24.1526L15.2924 24.2958ZM15.9509 19.7455L16.634 19.0152L17.0153 19.3719L16.9406 19.8888L15.9509 19.7455ZM12.535 16.5506L11.8519 17.281L11.8511 17.2802L12.535 16.5506ZM12.7646 15.7831L12.6141 14.7945L12.6144 14.7944L12.7646 15.7831ZM17.3417 15.0875L18.2476 15.5111L18.021 15.9958L17.492 16.0762L17.3417 15.0875ZM19.2821 10.938L18.3762 10.5144L18.3766 10.5135L19.2821 10.938ZM20.0931 10.9325L20.9776 10.4659L20.9778 10.4663L20.0931 10.9325ZM22.264 15.0524L22.1285 16.0432L21.619 15.9735L21.3793 15.5186L22.264 15.0524ZM26.8779 15.6833L26.7428 16.6741L26.7425 16.6741L26.8779 15.6833ZM27.1504 16.4475L27.8587 17.1534L27.8582 17.1539L27.1504 16.4475ZM23.9145 19.6898L22.9341 19.8868L22.8287 19.3622L23.2067 18.9834L23.9145 19.6898ZM24.8266 24.229L25.807 24.032L25.8071 24.0325L24.8266 24.229ZM24.1833 24.7069L23.7307 25.5986L23.7307 25.5986L24.1833 24.7069ZM20.0131 22.5899L19.5401 21.7089L20.0001 21.4619L20.4657 21.6982L20.0131 22.5899ZM15.9622 24.7648L16.4352 25.6459L16.4352 25.6459L15.9622 24.7648ZM14.9251 25.5627C14.7021 25.4104 14.5246 25.1988 14.4139 24.9505L16.2405 24.136C16.1994 24.0438 16.1341 23.9665 16.0531 23.9111L14.9251 25.5627ZM14.4139 24.9505C14.3031 24.7021 14.2632 24.4256 14.3027 24.1527L16.2821 24.4389C16.2974 24.3332 16.2817 24.2283 16.2405 24.136L14.4139 24.9505ZM14.3027 24.1526L14.9612 19.6023L16.9406 19.8888L16.2821 24.439L14.3027 24.1526ZM15.2678 20.4759L11.8519 17.281L13.2181 15.8203L16.634 19.0152L15.2678 20.4759ZM11.8511 17.2802C11.6562 17.0975 11.5138 16.8638 11.442 16.6038L13.3698 16.0713C13.3428 15.9736 13.2899 15.8876 13.219 15.8211L11.8511 17.2802ZM11.442 16.6038C11.3701 16.3435 11.3717 16.0666 11.4501 15.8046L13.3662 16.3777C13.3968 16.2754 13.3969 16.1692 13.3698 16.0713L11.442 16.6038ZM11.4501 15.8046C11.5285 15.5425 11.6799 15.3082 11.8871 15.1291L13.1949 16.6423C13.2761 16.5721 13.3356 16.4802 13.3662 16.3777L11.4501 15.8046ZM11.8871 15.1291C12.0942 14.9502 12.3467 14.8352 12.6141 14.7945L12.9151 16.7717C13.0163 16.7563 13.1138 16.7124 13.1949 16.6423L11.8871 15.1291ZM12.6144 14.7944L17.1915 14.0989L17.492 16.0762L12.9148 16.7717L12.6144 14.7944ZM16.4359 14.6639L18.3762 10.5144L20.1879 11.3616L18.2476 15.5111L16.4359 14.6639ZM18.3766 10.5135C18.493 10.2653 18.6775 10.0563 18.9083 9.90992L19.9794 11.5989C20.0693 11.5419 20.1418 11.46 20.1875 11.3625L18.3766 10.5135ZM18.9083 9.90992C19.1388 9.7637 19.4044 9.68703 19.6739 9.6852L19.6874 11.6852C19.7882 11.6845 19.8898 11.6558 19.9794 11.5989L18.9083 9.90992ZM19.6739 9.6852C19.9431 9.68338 20.2065 9.75622 20.4355 9.89354L19.4069 11.6088C19.4902 11.6587 19.5869 11.6858 19.6874 11.6852L19.6739 9.6852ZM20.4355 9.89354C20.6645 10.0308 20.8524 10.2286 20.9776 10.4659L19.2086 11.3991C19.2549 11.4868 19.3237 11.5589 19.4069 11.6088L20.4355 9.89354ZM20.9778 10.4663L23.1487 14.5862L21.3793 15.5186L19.2084 11.3987L20.9778 10.4663ZM22.3995 14.0616L27.0134 14.6925L26.7425 16.6741L22.1285 16.0432L22.3995 14.0616ZM27.013 14.6924C27.2791 14.7287 27.5294 14.8376 27.7369 15.0058L26.4777 16.5596C26.5531 16.6207 26.6445 16.6607 26.7428 16.6741L27.013 14.6924ZM27.7369 15.0058C27.9445 15.174 28.1032 15.3966 28.1936 15.6504L26.3098 16.3221C26.3436 16.4168 26.4022 16.4984 26.4777 16.5596L27.7369 15.0058ZM28.1936 15.6504C28.2842 15.9043 28.303 16.1803 28.2444 16.4471L26.291 16.018C26.2682 16.1218 26.2759 16.2271 26.3098 16.3221L28.1936 15.6504ZM28.2444 16.4471C28.1858 16.7141 28.0523 16.9591 27.8587 17.1533L26.4421 15.7416C26.3661 15.8178 26.3138 15.914 26.291 16.018L28.2444 16.4471ZM27.8582 17.1539L24.6223 20.3962L23.2067 18.9834L26.4426 15.7411L27.8582 17.1539ZM24.8949 19.4928L25.807 24.032L23.8462 24.426L22.9341 19.8868L24.8949 19.4928ZM25.8071 24.0325C25.8603 24.2979 25.8385 24.5745 25.7409 24.8304L23.8721 24.1181C23.8339 24.2184 23.826 24.3251 23.8461 24.4254L25.8071 24.0325ZM25.7409 24.8304C25.6434 25.0864 25.4748 25.3089 25.2551 25.4721L24.0624 23.8667C23.9765 23.9305 23.9103 24.0178 23.8721 24.1181L25.7409 24.8304ZM25.2551 25.4721C25.0355 25.6353 24.7757 25.7313 24.5064 25.7525L24.3493 23.7587C24.248 23.7667 24.1481 23.803 24.0624 23.8667L25.2551 25.4721ZM24.5064 25.7525C24.2373 25.7737 23.969 25.7195 23.7307 25.5986L24.636 23.8152C24.5493 23.7711 24.4503 23.7507 24.3493 23.7587L24.5064 25.7525ZM23.7307 25.5986L19.5605 23.4816L20.4657 21.6982L24.636 23.8152L23.7307 25.5986ZM20.4861 23.471L16.4352 25.6459L15.4892 23.8838L19.5401 21.7089L20.4861 23.471ZM16.4352 25.6459C16.1973 25.7736 15.9302 25.8311 15.6642 25.8154L15.7819 23.8188C15.6829 23.813 15.5813 23.8343 15.4892 23.8837L16.4352 25.6459ZM15.6642 25.8154C15.3985 25.7997 15.1429 25.7116 14.9247 25.5624L16.0535 23.9114C15.9742 23.8572 15.8806 23.8247 15.7819 23.8188L15.6642 25.8154Z" fill="#E4E4EF" mask="url(#path-3-inside-1_1152_2767)"/>
</svg>
