<svg width="28" height="21" viewBox="0 0 28 21" fill="none" xmlns="http://www.w3.org/2000/svg">
<g id="Ic_smart_repricer">
<path id="Vector" d="M6.25 13.5417H8.33333V12.5H9.375C9.94792 12.5 10.4167 12.0313 10.4167 11.4583V8.33333C10.4167 7.76042 9.94792 7.29167 9.375 7.29167H6.25V6.25H10.4167V4.16667H8.33333V3.125H6.25V4.16667H5.20833C4.63542 4.16667 4.16667 4.63542 4.16667 5.20833V8.33333C4.16667 8.90625 4.63542 9.375 5.20833 9.375H8.33333V10.4167H4.16667V12.5H6.25V13.5417ZM18.75 0H2.08333C0.927083 0 0.0104167 0.927083 0.0104167 2.08333L0 14.5833C0 15.7396 0.927083 16.6667 2.08333 16.6667H18.75C19.9062 16.6667 20.8333 15.7396 20.8333 14.5833V2.08333C20.8333 0.927083 19.9062 0 18.75 0ZM18.75 14.5833H2.08333V2.08333H18.75V14.5833ZM12.5 6.25L14.5833 4.16667L16.6667 6.25M16.6667 10.6771L14.5833 12.7604L12.5 10.6771" fill="#808080"/>
<g id="Vector_2">
<mask id="path-2-inside-1_13_2625" fill="white">
<path d="M15.4891 19.7369C15.4181 19.6885 15.362 19.6213 15.3272 19.5433C15.2924 19.4652 15.2803 19.3794 15.2924 19.2958L15.9509 14.7455L12.535 11.5506C12.4731 11.4925 12.4283 11.4187 12.4059 11.3375C12.3835 11.2563 12.3843 11.171 12.4081 11.0912C12.432 11.0113 12.478 10.9402 12.541 10.8857C12.604 10.8313 12.6815 10.7957 12.7646 10.7831L17.3417 10.0875L19.2821 5.93799C19.3174 5.86267 19.3734 5.79908 19.4439 5.75441C19.5143 5.70973 19.5963 5.68576 19.6807 5.68519C19.765 5.68462 19.8483 5.70747 19.9212 5.75117C19.9941 5.79487 20.0536 5.85768 20.0931 5.9325L22.264 10.0524L26.8779 10.6833C26.9618 10.6947 27.0412 10.7291 27.1073 10.7827C27.1733 10.8362 27.2234 10.9067 27.2517 10.9862C27.2801 11.0657 27.2856 11.151 27.2677 11.2325C27.2498 11.3141 27.2092 11.3885 27.1504 11.4475L23.9145 14.6898L24.8266 19.229C24.8431 19.3115 24.8362 19.3964 24.8065 19.4743C24.7768 19.5521 24.7257 19.6197 24.6587 19.6694C24.5918 19.7191 24.5118 19.749 24.4278 19.7556C24.3438 19.7622 24.2591 19.7453 24.1833 19.7069L20.0131 17.5899L15.9622 19.7648C15.8893 19.8039 15.8066 19.822 15.7231 19.8171C15.6396 19.8122 15.5586 19.7845 15.4891 19.7369Z"/>
</mask>
<path d="M15.4891 19.7369C15.4181 19.6885 15.362 19.6213 15.3272 19.5433C15.2924 19.4652 15.2803 19.3794 15.2924 19.2958L15.9509 14.7455L12.535 11.5506C12.4731 11.4925 12.4283 11.4187 12.4059 11.3375C12.3835 11.2563 12.3843 11.171 12.4081 11.0912C12.432 11.0113 12.478 10.9402 12.541 10.8857C12.604 10.8313 12.6815 10.7957 12.7646 10.7831L17.3417 10.0875L19.2821 5.93799C19.3174 5.86267 19.3734 5.79908 19.4439 5.75441C19.5143 5.70973 19.5963 5.68576 19.6807 5.68519C19.765 5.68462 19.8483 5.70747 19.9212 5.75117C19.9941 5.79487 20.0536 5.85768 20.0931 5.9325L22.264 10.0524L26.8779 10.6833C26.9618 10.6947 27.0412 10.7291 27.1073 10.7827C27.1733 10.8362 27.2234 10.9067 27.2517 10.9862C27.2801 11.0657 27.2856 11.151 27.2677 11.2325C27.2498 11.3141 27.2092 11.3885 27.1504 11.4475L23.9145 14.6898L24.8266 19.229C24.8431 19.3115 24.8362 19.3964 24.8065 19.4743C24.7768 19.5521 24.7257 19.6197 24.6587 19.6694C24.5918 19.7191 24.5118 19.749 24.4278 19.7556C24.3438 19.7622 24.2591 19.7453 24.1833 19.7069L20.0131 17.5899L15.9622 19.7648C15.8893 19.8039 15.8066 19.822 15.7231 19.8171C15.6396 19.8122 15.5586 19.7845 15.4891 19.7369Z" fill="#808080"/>
<path d="M15.4891 19.7369L16.0531 18.9111L16.0535 18.9115L15.4891 19.7369ZM15.2924 19.2958L14.3027 19.1527L14.3027 19.1526L15.2924 19.2958ZM15.9509 14.7455L16.634 14.0152L17.0153 14.3719L16.9406 14.8888L15.9509 14.7455ZM12.535 11.5506L11.8519 12.281L11.8511 12.2802L12.535 11.5506ZM12.7646 10.7831L12.6141 9.79447L12.6144 9.79443L12.7646 10.7831ZM17.3417 10.0875L18.2476 10.5111L18.021 10.9958L17.492 11.0762L17.3417 10.0875ZM19.2821 5.93799L18.3762 5.51441L18.3766 5.51346L19.2821 5.93799ZM20.0931 5.9325L20.9776 5.46593L20.9778 5.46633L20.0931 5.9325ZM22.264 10.0524L22.1285 11.0432L21.619 10.9735L21.3793 10.5186L22.264 10.0524ZM26.8779 10.6833L26.7428 11.6741L26.7425 11.6741L26.8779 10.6833ZM27.1504 11.4475L27.8587 12.1534L27.8582 12.1539L27.1504 11.4475ZM23.9145 14.6898L22.9341 14.8868L22.8287 14.3622L23.2067 13.9834L23.9145 14.6898ZM24.8266 19.229L25.807 19.032L25.8071 19.0325L24.8266 19.229ZM24.1833 19.7069L23.7307 20.5986L23.7307 20.5986L24.1833 19.7069ZM20.0131 17.5899L19.5401 16.7089L20.0001 16.4619L20.4657 16.6983L20.0131 17.5899ZM15.9622 19.7648L16.4352 20.6459L16.4352 20.6459L15.9622 19.7648ZM14.9251 20.5627C14.7021 20.4105 14.5246 20.1988 14.4139 19.9505L16.2405 19.136C16.1994 19.0438 16.1341 18.9665 16.0531 18.9111L14.9251 20.5627ZM14.4139 19.9505C14.3031 19.7021 14.2632 19.4256 14.3027 19.1527L16.2821 19.4389C16.2974 19.3332 16.2817 19.2283 16.2405 19.136L14.4139 19.9505ZM14.3027 19.1526L14.9612 14.6023L16.9406 14.8888L16.2821 19.439L14.3027 19.1526ZM15.2678 15.4759L11.8519 12.281L13.2181 10.8203L16.634 14.0152L15.2678 15.4759ZM11.8511 12.2802C11.6562 12.0975 11.5138 11.8638 11.442 11.6038L13.3698 11.0713C13.3428 10.9736 13.2899 10.8876 13.219 10.8211L11.8511 12.2802ZM11.442 11.6038C11.3701 11.3435 11.3717 11.0666 11.4501 10.8046L13.3662 11.3777C13.3968 11.2754 13.3969 11.1692 13.3698 11.0713L11.442 11.6038ZM11.4501 10.8046C11.5285 10.5425 11.6799 10.3082 11.8871 10.1291L13.1949 11.6423C13.2761 11.5721 13.3356 11.4802 13.3662 11.3777L11.4501 10.8046ZM11.8871 10.1291C12.0942 9.95017 12.3467 9.83519 12.6141 9.79447L12.9151 11.7717C13.0163 11.7563 13.1138 11.7124 13.1949 11.6423L11.8871 10.1291ZM12.6144 9.79443L17.1915 9.09888L17.492 11.0762L12.9148 11.7717L12.6144 9.79443ZM16.4359 9.66395L18.3762 5.51441L20.1879 6.36157L18.2476 10.5111L16.4359 9.66395ZM18.3766 5.51346C18.493 5.26535 18.6775 5.05626 18.9083 4.90993L19.9794 6.59889C20.0693 6.5419 20.1418 6.45999 20.1875 6.36252L18.3766 5.51346ZM18.9083 4.90993C19.1388 4.76371 19.4044 4.68704 19.6739 4.68521L19.6874 6.68516C19.7882 6.68448 19.8898 6.65576 19.9794 6.59889L18.9083 4.90993ZM19.6739 4.68521C19.9431 4.68339 20.2065 4.75623 20.4355 4.89354L19.4069 6.6088C19.4902 6.65871 19.5869 6.68585 19.6874 6.68516L19.6739 4.68521ZM20.4355 4.89354C20.6645 5.03084 20.8524 5.22858 20.9776 5.46593L19.2086 6.39907C19.2549 6.48678 19.3237 6.5589 19.4069 6.6088L20.4355 4.89354ZM20.9778 5.46633L23.1487 9.58625L21.3793 10.5186L19.2084 6.39867L20.9778 5.46633ZM22.3995 9.06163L27.0134 9.6925L26.7425 11.6741L22.1285 11.0432L22.3995 9.06163ZM27.013 9.69245C27.2791 9.72873 27.5294 9.83759 27.7369 10.0058L26.4777 11.5596C26.5531 11.6207 26.6445 11.6607 26.7428 11.6741L27.013 9.69245ZM27.7369 10.0058C27.9445 10.174 28.1032 10.3966 28.1936 10.6504L26.3098 11.3221C26.3436 11.4168 26.4022 11.4984 26.4777 11.5596L27.7369 10.0058ZM28.1936 10.6504C28.2842 10.9043 28.303 11.1803 28.2444 11.4471L26.291 11.018C26.2682 11.1218 26.2759 11.2271 26.3098 11.3221L28.1936 10.6504ZM28.2444 11.4471C28.1858 11.7141 28.0523 11.9591 27.8587 12.1534L26.4421 10.7416C26.3661 10.8179 26.3138 10.914 26.291 11.018L28.2444 11.4471ZM27.8582 12.1539L24.6223 15.3962L23.2067 13.9834L26.4426 10.7411L27.8582 12.1539ZM24.8949 14.4928L25.807 19.032L23.8462 19.426L22.9341 14.8868L24.8949 14.4928ZM25.8071 19.0325C25.8603 19.2979 25.8385 19.5745 25.7409 19.8304L23.8721 19.1181C23.8339 19.2184 23.826 19.3251 23.8461 19.4254L25.8071 19.0325ZM25.7409 19.8304C25.6434 20.0864 25.4748 20.3089 25.2551 20.4721L24.0624 18.8667C23.9765 18.9305 23.9103 19.0178 23.8721 19.1181L25.7409 19.8304ZM25.2551 20.4721C25.0355 20.6353 24.7757 20.7313 24.5064 20.7525L24.3493 18.7587C24.248 18.7667 24.1481 18.803 24.0624 18.8667L25.2551 20.4721ZM24.5064 20.7525C24.2373 20.7737 23.969 20.7195 23.7307 20.5986L24.636 18.8152C24.5493 18.7712 24.4503 18.7507 24.3493 18.7587L24.5064 20.7525ZM23.7307 20.5986L19.5605 18.4816L20.4657 16.6983L24.636 18.8152L23.7307 20.5986ZM20.4861 18.471L16.4352 20.6459L15.4892 18.8838L19.5401 16.7089L20.4861 18.471ZM16.4352 20.6459C16.1973 20.7736 15.9302 20.8311 15.6642 20.8154L15.7819 18.8189C15.6829 18.813 15.5813 18.8343 15.4892 18.8838L16.4352 20.6459ZM15.6642 20.8154C15.3985 20.7997 15.1429 20.7117 14.9247 20.5624L16.0535 18.9115C15.9742 18.8572 15.8806 18.8247 15.7819 18.8189L15.6642 20.8154Z" fill="#E4E4EF" mask="url(#path-2-inside-1_13_2625)"/>
</g>
</g>
</svg>
