<svg width="22" height="22" viewBox="0 0 22 22" fill="none" xmlns="http://www.w3.org/2000/svg">
<g id="Ic_wb_browser" clip-path="url(#clip0_13_2618)">
<path id="Vector" d="M10.9883 22C4.91788 21.9934 0 17.0707 0 11C0 4.92492 4.92492 0 11 0C17.0751 0 22 4.92492 22 11C21.9955 12.6087 21.6382 14.1969 20.9532 15.6526L20.9433 15.644L20.3551 15.0559L20.9532 11.8701C21.0111 11.3406 20.8857 11.6219 20.6642 11.2512C20.1601 10.7307 21.487 11.2631 20.9532 11.55H17.3917C17.3881 11.6574 17.3822 11.7636 17.3769 11.8701L16.6008 12.2947L16.265 12.0932C16.2767 11.9134 16.2864 11.7324 16.293 11.55C15.9828 11.3639 17.4106 11.55 16.293 11.55C16.4261 11.1962 17.7841 11.6941 16.293 11.55H11.55V15.2086H11.8987L12.9089 16.309H10.45H6.765C6.98236 16.9301 7.2336 17.5034 7.51476 18.014C8.3358 19.505 9.36562 20.4376 10.45 20.7064V16.309C10.6678 16.6813 11.0803 15.1094 11.55 15.2086V20.75C12.2958 20.6232 13.02 20.1808 13.6743 19.4605L14.1693 19.5312H18.5C17.2272 20.0273 12.3661 21.9998 11 22H10.9883ZM7.9156 20.409C7.40432 19.8915 6.9454 19.2606 6.55094 18.5445C6.18134 17.8735 5.86344 17.1217 5.6023 16.3088H2.6422C3.8599 18.2241 5.7167 19.6902 7.9156 20.409ZM2.03632 15.2086H5.29408C5.02018 14.073 4.85232 12.8414 4.80942 11.5498H1.11584C1.18417 12.8172 1.49673 14.0597 2.03632 15.2086ZM6.4306 15.2086H10.45V11.55H5.91074C5.95738 12.8557 6.1402 14.0919 6.4306 15.2086ZM1.11584 10.45H4.80348C4.83186 9.16168 4.98388 7.93012 5.24216 6.7914H2.03632C1.49673 7.94027 1.18417 9.18257 1.11584 10.45ZM5.90348 10.45H10.45V6.7914H6.3756C6.1017 7.9134 5.93428 9.1487 5.90348 10.45ZM11.55 10.45H16.3002C16.2694 9.1487 16.1018 7.9134 15.8279 6.7914H11.55V10.45ZM17.3967 10.45H20.8842C20.8158 9.18256 20.5033 7.94027 19.9637 6.7914H16.9598C17.2172 7.93034 17.3683 9.1619 17.3967 10.45ZM2.6422 5.6914H5.53212C5.80536 4.7927 6.14812 3.9666 6.55094 3.2351C6.8673 2.6609 7.2259 2.14192 7.61882 1.69136C5.54928 2.44156 3.8049 3.86276 2.6422 5.6914ZM6.68888 5.6914H10.45V1.11584C10.3822 1.11958 10.3154 1.1264 10.248 1.13124C9.23824 1.46124 8.28476 2.36764 7.51476 3.76574C7.2006 4.33642 6.92252 4.9841 6.68888 5.6914ZM11.55 5.6914H15.5146C15.2814 4.98388 15.0031 4.33642 14.689 3.76574C13.9348 2.39624 13.0046 1.49798 12.0179 1.15148C11.8623 1.13594 11.7062 1.12406 11.55 1.11584V5.6914ZM16.6705 5.6914H19.3578C18.2454 3.94106 16.612 2.58368 14.6876 1.81038C15.0405 2.23278 15.3641 2.71106 15.6526 3.2351C16.0554 3.9666 16.3979 4.79292 16.6705 5.6914Z" fill="#808080"/>
<path id="Vector_2" d="M13.1044 18.853L12.4579 23.3207L16.4353 21.1853L16.6653 21.0618L16.8981 21.18L20.9719 23.248L20.083 18.8242L20.0303 18.5619L20.2193 18.3725L23.3827 15.2028L18.8549 14.5837L18.6002 14.5489L18.4803 14.3214L16.3502 10.2787L14.4534 14.3352L14.34 14.5775L14.0756 14.6177L9.61468 15.2956L12.9511 18.4163L13.1418 18.5946L13.1044 18.853ZM23.4691 15.2146L23.4689 15.2146L23.4691 15.2146Z" fill="#808080" stroke="#E4E4EF"/>
</g>
<defs>
<clipPath id="clip0_13_2618">
<rect width="22" height="22" fill="white" transform="matrix(1 0 0 -1 0 22)"/>
</clipPath>
</defs>
</svg>
