<?xml version="1.0" encoding="UTF-8"?>
<svg xmlns="http://www.w3.org/2000/svg" xmlns:xlink="http://www.w3.org/1999/xlink" width="0" height="0">
<symbol id="State=Passive" width="18" height="22" viewBox="0 0 18 22" fill="none">
<path d="M8.77783 11H16.5556M16.5556 11L13.2223 14.3333M16.5556 11L13.2223 7.66667" stroke="#808080" stroke-width="2" stroke-linecap="round" stroke-linejoin="round"/>
<path d="M16.5556 4.33333V3.22222C16.5556 1.99492 15.5607 1 14.3333 1H3.22222C1.99492 1 1 1.99492 1 3.22222V18.7778C1 20.0051 1.99492 21 3.22222 21H14.3333C15.5607 21 16.5556 20.0051 16.5556 18.7778V17.6667" stroke="#808080" stroke-width="2" stroke-linecap="round" stroke-linejoin="round"/>
</symbol>

<symbol id="State=Passive (1)" width="22" height="22" viewBox="0 0 22 22" fill="none">
<path d="M11 14C12.6569 14 14 12.6569 14 11C14 9.34312 12.6569 8.00002 11 8.00002C9.3431 8.00002 8 9.34312 8 11C8 12.6569 9.3431 14 11 14Z" stroke="#808080" stroke-width="2" stroke-linecap="round" stroke-linejoin="round"/>
<path d="M18.6224 9.3954L17.5247 6.7448L19 5L17 3L15.2647 4.48295L12.5578 3.36974L11.9353 1H9.981L9.3491 3.40113L6.70441 4.51596L5 3L3 5L4.45337 6.78885L3.3725 9.4463L1 10V12L3.40111 12.6555L4.51575 15.2997L3 17L5 19L6.79116 17.5403L9.397 18.6123L10 21H12L12.6045 18.6132L15.2551 17.5155C15.6969 17.8313 17 19 17 19L19 17L17.5159 15.2494L18.6139 12.598L20.9999 11.9772L21 10L18.6224 9.3954Z" stroke="#808080" stroke-width="2" stroke-linecap="round" stroke-linejoin="round"/>
</symbol>

<symbol id="State=Passive (2)" width="22" height="22" viewBox="0 0 22 22" fill="none">
<g clip-path="url(#clip0_933_3399)">
<path d="M10.9883 22C4.91788 21.9934 0 17.0707 0 11C0 4.92492 4.92492 0 11 0C17.0751 0 22 4.92492 22 11C21.9955 12.6087 21.6382 14.1969 20.9532 15.6526L20.9433 15.644L20.3551 15.0559L20.9532 11.8701C21.0111 11.3406 20.8857 11.6219 20.6642 11.2512C20.1601 10.7307 21.487 11.2631 20.9532 11.55H17.3917C17.3881 11.6574 17.3822 11.7636 17.3769 11.8701L16.6008 12.2947L16.265 12.0932C16.2767 11.9134 16.2864 11.7324 16.293 11.55C15.9828 11.3639 17.4106 11.55 16.293 11.55C16.4261 11.1962 17.7841 11.6941 16.293 11.55H11.55V15.2086H11.8987L12.9089 16.309H10.45H6.765C6.98236 16.9301 7.2336 17.5034 7.51476 18.014C8.3358 19.505 9.36562 20.4376 10.45 20.7064V16.309C10.6678 16.6813 11.0803 15.1094 11.55 15.2086V20.75C12.2958 20.6232 13.02 20.1808 13.6743 19.4605L14.1693 19.5312H18.5C17.2272 20.0273 12.3661 21.9998 11 22H10.9883ZM7.9156 20.409C7.40432 19.8915 6.9454 19.2606 6.55094 18.5445C6.18134 17.8735 5.86344 17.1217 5.6023 16.3088H2.6422C3.8599 18.2241 5.7167 19.6902 7.9156 20.409ZM2.03632 15.2086H5.29408C5.02018 14.073 4.85232 12.8414 4.80942 11.5498H1.11584C1.18417 12.8172 1.49673 14.0597 2.03632 15.2086ZM6.4306 15.2086H10.45V11.55H5.91074C5.95738 12.8557 6.1402 14.0919 6.4306 15.2086ZM1.11584 10.45H4.80348C4.83186 9.16168 4.98388 7.93012 5.24216 6.7914H2.03632C1.49673 7.94027 1.18417 9.18257 1.11584 10.45ZM5.90348 10.45H10.45V6.7914H6.3756C6.1017 7.9134 5.93428 9.1487 5.90348 10.45ZM11.55 10.45H16.3002C16.2694 9.1487 16.1018 7.9134 15.8279 6.7914H11.55V10.45ZM17.3967 10.45H20.8842C20.8158 9.18256 20.5033 7.94027 19.9637 6.7914H16.9598C17.2172 7.93034 17.3683 9.1619 17.3967 10.45ZM2.6422 5.6914H5.53212C5.80536 4.7927 6.14812 3.9666 6.55094 3.2351C6.8673 2.6609 7.2259 2.14192 7.61882 1.69136C5.54928 2.44156 3.8049 3.86276 2.6422 5.6914ZM6.68888 5.6914H10.45V1.11584C10.3822 1.11958 10.3154 1.1264 10.248 1.13124C9.23824 1.46124 8.28476 2.36764 7.51476 3.76574C7.2006 4.33642 6.92252 4.9841 6.68888 5.6914ZM11.55 5.6914H15.5146C15.2814 4.98388 15.0031 4.33642 14.689 3.76574C13.9348 2.39624 13.0046 1.49798 12.0179 1.15148C11.8623 1.13594 11.7062 1.12406 11.55 1.11584V5.6914ZM16.6705 5.6914H19.3578C18.2454 3.94106 16.612 2.58368 14.6876 1.81038C15.0405 2.23278 15.3641 2.71106 15.6526 3.2351C16.0554 3.9666 16.3979 4.79292 16.6705 5.6914Z" fill="#808080"/>
<path d="M13.1044 18.853L12.4579 23.3207L16.4353 21.1853L16.6653 21.0618L16.8981 21.18L20.9719 23.248L20.083 18.8242L20.0303 18.5619L20.2193 18.3725L23.3827 15.2028L18.8549 14.5837L18.6002 14.5489L18.4803 14.3214L16.3502 10.2787L14.4534 14.3352L14.34 14.5775L14.0756 14.6177L9.61468 15.2956L12.9511 18.4163L13.1418 18.5946L13.1044 18.853ZM23.4691 15.2146L23.4689 15.2146L23.4691 15.2146Z" fill="#808080" stroke="white"/>
</g>
<defs>
<clipPath>
<rect width="22" height="22" fill="white" transform="matrix(1 0 0 -1 0 22)"/>
</clipPath>
</defs>
</symbol>

<symbol id="State=Passive (3)" width="30" height="26" viewBox="0 0 30 26" fill="none">
<path d="M12 6V1H7.59998" stroke="#808080" stroke-width="2" stroke-linecap="round" stroke-linejoin="round"/>
<path d="M18.6002 6H5.4002C4.18517 6 3.2002 7.11929 3.2002 8.5V18.5C3.2002 19.8807 4.18517 21 5.4002 21H18.6002C19.8152 21 20.8002 19.8807 20.8002 18.5V8.5C20.8002 7.11929 19.8152 6 18.6002 6Z" stroke="#808080" stroke-width="2" stroke-linecap="round" stroke-linejoin="round"/>
<path d="M1 13.5H3.2M20.8 13.5H23M15.3 12.25V14.75M8.7 12.25V14.75" stroke="#808080" stroke-width="2" stroke-linecap="round" stroke-linejoin="round"/>
<path d="M18.4457 20.8171L17.7992 25.2848L21.7766 23.1494L22.0066 23.0259L22.2394 23.1441L26.3132 25.2121L25.4243 20.7883L25.3716 20.526L25.5606 20.3366L28.724 17.1669L24.1962 16.5478L23.9415 16.513L23.8216 16.2855L21.6915 12.2429L19.7947 16.2993L19.6814 16.5417L19.4169 16.5819L14.956 17.2597L18.2924 20.3804L18.4831 20.5587L18.4457 20.8171ZM28.8104 17.1787L28.8102 17.1787L28.8104 17.1787Z" fill="#808080" stroke="white"/>
</symbol>

<symbol id="State=Passive (4)" width="28" height="25" viewBox="0 0 28 25" fill="none">
<path d="M3.30769 11.7681V8.69076C3.30769 8.28268 3.46978 7.89132 3.7583 7.60277C4.04681 7.31421 4.43813 7.1521 4.84615 7.1521H19.4615C19.8696 7.1521 20.2609 7.31421 20.5494 7.60277C20.8379 7.89132 21 8.28268 21 8.69076V19.4613C21 19.8694 20.8379 20.2608 20.5494 20.5493C20.2609 20.8379 19.8696 21 19.4615 21H4.84615C4.43813 21 4.04681 20.8379 3.7583 20.5493C3.46978 20.2608 3.30769 19.8694 3.30769 19.4613V15.6147M15.8615 3.30546L7.13846 1.02825C7.04044 1.00063 6.93784 0.993161 6.83685 1.00629C6.73586 1.01942 6.63858 1.05288 6.55088 1.10464C6.46317 1.15641 6.38686 1.22541 6.32656 1.30748C6.26625 1.38956 6.2232 1.483 6.2 1.58217L5.76923 3.30546" stroke="#808080" stroke-width="1.85714" stroke-linecap="round" stroke-linejoin="round"/>
<path d="M1.76914 11.7681H5.61529C6.04013 11.7681 6.38452 12.1126 6.38452 12.5375V14.8454C6.38452 15.2703 6.04013 15.6148 5.61529 15.6148H1.76914C1.3443 15.6148 0.999906 15.2703 0.999906 14.8454V12.5375C0.999906 12.1126 1.3443 11.7681 1.76914 11.7681Z" stroke="#808080" stroke-width="1.85714" stroke-linecap="round" stroke-linejoin="round"/>
<mask fill="white">
<path d="M15.4891 24.7369C15.4181 24.6885 15.362 24.6213 15.3272 24.5433C15.2924 24.4652 15.2803 24.3794 15.2924 24.2958L15.9509 19.7455L12.535 16.5506C12.4731 16.4925 12.4283 16.4187 12.4059 16.3375C12.3835 16.2563 12.3843 16.171 12.4081 16.0912C12.432 16.0113 12.478 15.9402 12.541 15.8857C12.604 15.8313 12.6815 15.7957 12.7646 15.7831L17.3417 15.0875L19.2821 10.938C19.3174 10.8627 19.3734 10.7991 19.4439 10.7544C19.5143 10.7097 19.5963 10.6858 19.6807 10.6852C19.765 10.6846 19.8483 10.7075 19.9212 10.7512C19.9941 10.7949 20.0536 10.8577 20.0931 10.9325L22.264 15.0524L26.8779 15.6833C26.9618 15.6947 27.0412 15.7291 27.1073 15.7827C27.1733 15.8362 27.2234 15.9067 27.2517 15.9862C27.2801 16.0657 27.2856 16.151 27.2677 16.2325C27.2498 16.3141 27.2092 16.3885 27.1504 16.4475L23.9145 19.6898L24.8266 24.229C24.8431 24.3115 24.8362 24.3964 24.8065 24.4743C24.7768 24.5521 24.7257 24.6197 24.6587 24.6694C24.5918 24.7191 24.5118 24.749 24.4278 24.7556C24.3438 24.7622 24.2591 24.7453 24.1833 24.7069L20.0131 22.5899L15.9622 24.7648C15.8893 24.8039 15.8066 24.822 15.7231 24.8171C15.6396 24.8122 15.5586 24.7845 15.4891 24.7369Z"/>
</mask>
<path d="M15.4891 24.7369C15.4181 24.6885 15.362 24.6213 15.3272 24.5433C15.2924 24.4652 15.2803 24.3794 15.2924 24.2958L15.9509 19.7455L12.535 16.5506C12.4731 16.4925 12.4283 16.4187 12.4059 16.3375C12.3835 16.2563 12.3843 16.171 12.4081 16.0912C12.432 16.0113 12.478 15.9402 12.541 15.8857C12.604 15.8313 12.6815 15.7957 12.7646 15.7831L17.3417 15.0875L19.2821 10.938C19.3174 10.8627 19.3734 10.7991 19.4439 10.7544C19.5143 10.7097 19.5963 10.6858 19.6807 10.6852C19.765 10.6846 19.8483 10.7075 19.9212 10.7512C19.9941 10.7949 20.0536 10.8577 20.0931 10.9325L22.264 15.0524L26.8779 15.6833C26.9618 15.6947 27.0412 15.7291 27.1073 15.7827C27.1733 15.8362 27.2234 15.9067 27.2517 15.9862C27.2801 16.0657 27.2856 16.151 27.2677 16.2325C27.2498 16.3141 27.2092 16.3885 27.1504 16.4475L23.9145 19.6898L24.8266 24.229C24.8431 24.3115 24.8362 24.3964 24.8065 24.4743C24.7768 24.5521 24.7257 24.6197 24.6587 24.6694C24.5918 24.7191 24.5118 24.749 24.4278 24.7556C24.3438 24.7622 24.2591 24.7453 24.1833 24.7069L20.0131 22.5899L15.9622 24.7648C15.8893 24.8039 15.8066 24.822 15.7231 24.8171C15.6396 24.8122 15.5586 24.7845 15.4891 24.7369Z" fill="#808080"/>
<path d="M15.4891 24.7369L16.0531 23.9111L16.0535 23.9115L15.4891 24.7369ZM15.2924 24.2958L14.3027 24.1527L14.3027 24.1526L15.2924 24.2958ZM15.9509 19.7455L16.634 19.0152L17.0153 19.3719L16.9406 19.8888L15.9509 19.7455ZM12.535 16.5506L11.8519 17.281L11.8511 17.2802L12.535 16.5506ZM12.7646 15.7831L12.6141 14.7945L12.6144 14.7944L12.7646 15.7831ZM17.3417 15.0875L18.2476 15.5111L18.021 15.9958L17.492 16.0762L17.3417 15.0875ZM19.2821 10.938L18.3762 10.5144L18.3766 10.5135L19.2821 10.938ZM20.0931 10.9325L20.9776 10.4659L20.9778 10.4663L20.0931 10.9325ZM22.264 15.0524L22.1285 16.0432L21.619 15.9735L21.3793 15.5186L22.264 15.0524ZM26.8779 15.6833L26.7428 16.6741L26.7425 16.6741L26.8779 15.6833ZM27.1504 16.4475L27.8587 17.1534L27.8582 17.1539L27.1504 16.4475ZM23.9145 19.6898L22.9341 19.8868L22.8287 19.3622L23.2067 18.9834L23.9145 19.6898ZM24.8266 24.229L25.807 24.032L25.8071 24.0325L24.8266 24.229ZM24.1833 24.7069L23.7307 25.5986L23.7307 25.5986L24.1833 24.7069ZM20.0131 22.5899L19.5401 21.7089L20.0001 21.4619L20.4657 21.6983L20.0131 22.5899ZM15.9622 24.7648L16.4352 25.6459L16.4352 25.6459L15.9622 24.7648ZM14.9251 25.5627C14.7021 25.4105 14.5246 25.1988 14.4139 24.9505L16.2405 24.136C16.1994 24.0438 16.1341 23.9665 16.0531 23.9111L14.9251 25.5627ZM14.4139 24.9505C14.3031 24.7021 14.2632 24.4256 14.3027 24.1527L16.2821 24.4389C16.2974 24.3332 16.2817 24.2283 16.2405 24.136L14.4139 24.9505ZM14.3027 24.1526L14.9612 19.6023L16.9406 19.8888L16.2821 24.439L14.3027 24.1526ZM15.2678 20.4759L11.8519 17.281L13.2181 15.8203L16.634 19.0152L15.2678 20.4759ZM11.8511 17.2802C11.6562 17.0975 11.5138 16.8638 11.442 16.6038L13.3698 16.0713C13.3428 15.9736 13.2899 15.8876 13.219 15.8211L11.8511 17.2802ZM11.442 16.6038C11.3701 16.3435 11.3717 16.0666 11.4501 15.8046L13.3662 16.3777C13.3968 16.2754 13.3969 16.1692 13.3698 16.0713L11.442 16.6038ZM11.4501 15.8046C11.5285 15.5425 11.6799 15.3082 11.8871 15.1291L13.1949 16.6423C13.2761 16.5721 13.3356 16.4802 13.3662 16.3777L11.4501 15.8046ZM11.8871 15.1291C12.0942 14.9502 12.3467 14.8352 12.6141 14.7945L12.9151 16.7717C13.0163 16.7563 13.1138 16.7124 13.1949 16.6423L11.8871 15.1291ZM12.6144 14.7944L17.1915 14.0989L17.492 16.0762L12.9148 16.7717L12.6144 14.7944ZM16.4359 14.6639L18.3762 10.5144L20.1879 11.3616L18.2476 15.5111L16.4359 14.6639ZM18.3766 10.5135C18.493 10.2653 18.6775 10.0563 18.9083 9.90993L19.9794 11.5989C20.0693 11.5419 20.1418 11.46 20.1875 11.3625L18.3766 10.5135ZM18.9083 9.90993C19.1388 9.76371 19.4044 9.68704 19.6739 9.68521L19.6874 11.6852C19.7882 11.6845 19.8898 11.6558 19.9794 11.5989L18.9083 9.90993ZM19.6739 9.68521C19.9431 9.68339 20.2065 9.75623 20.4355 9.89354L19.4069 11.6088C19.4902 11.6587 19.5869 11.6858 19.6874 11.6852L19.6739 9.68521ZM20.4355 9.89354C20.6645 10.0308 20.8524 10.2286 20.9776 10.4659L19.2086 11.3991C19.2549 11.4868 19.3237 11.5589 19.4069 11.6088L20.4355 9.89354ZM20.9778 10.4663L23.1487 14.5862L21.3793 15.5186L19.2084 11.3987L20.9778 10.4663ZM22.3995 14.0616L27.0134 14.6925L26.7425 16.6741L22.1285 16.0432L22.3995 14.0616ZM27.013 14.6925C27.2791 14.7287 27.5294 14.8376 27.7369 15.0058L26.4777 16.5596C26.5531 16.6207 26.6445 16.6607 26.7428 16.6741L27.013 14.6925ZM27.7369 15.0058C27.9445 15.174 28.1032 15.3966 28.1936 15.6504L26.3098 16.3221C26.3436 16.4168 26.4022 16.4984 26.4777 16.5596L27.7369 15.0058ZM28.1936 15.6504C28.2842 15.9043 28.303 16.1803 28.2444 16.4471L26.291 16.018C26.2682 16.1218 26.2759 16.2271 26.3098 16.3221L28.1936 15.6504ZM28.2444 16.4471C28.1858 16.7141 28.0523 16.9591 27.8587 17.1534L26.4421 15.7416C26.3661 15.8179 26.3138 15.914 26.291 16.018L28.2444 16.4471ZM27.8582 17.1539L24.6223 20.3962L23.2067 18.9834L26.4426 15.7411L27.8582 17.1539ZM24.8949 19.4928L25.807 24.032L23.8462 24.426L22.9341 19.8868L24.8949 19.4928ZM25.8071 24.0325C25.8603 24.2979 25.8385 24.5745 25.7409 24.8304L23.8721 24.1181C23.8339 24.2184 23.826 24.3251 23.8461 24.4254L25.8071 24.0325ZM25.7409 24.8304C25.6434 25.0864 25.4748 25.3089 25.2551 25.4721L24.0624 23.8667C23.9765 23.9305 23.9103 24.0178 23.8721 24.1181L25.7409 24.8304ZM25.2551 25.4721C25.0355 25.6353 24.7757 25.7313 24.5064 25.7525L24.3493 23.7587C24.248 23.7667 24.1481 23.803 24.0624 23.8667L25.2551 25.4721ZM24.5064 25.7525C24.2373 25.7737 23.969 25.7195 23.7307 25.5986L24.636 23.8152C24.5493 23.7712 24.4503 23.7507 24.3493 23.7587L24.5064 25.7525ZM23.7307 25.5986L19.5605 23.4816L20.4657 21.6983L24.636 23.8152L23.7307 25.5986ZM20.4861 23.471L16.4352 25.6459L15.4892 23.8838L19.5401 21.7089L20.4861 23.471ZM16.4352 25.6459C16.1973 25.7736 15.9302 25.8311 15.6642 25.8154L15.7819 23.8189C15.6829 23.813 15.5813 23.8343 15.4892 23.8838L16.4352 25.6459ZM15.6642 25.8154C15.3985 25.7997 15.1429 25.7117 14.9247 25.5624L16.0535 23.9115C15.9742 23.8572 15.8806 23.8247 15.7819 23.8189L15.6642 25.8154Z" fill="white" mask="url(#path-3-inside-1_934_3419)"/>
</symbol>

<symbol id="State=Passive (5)" width="28" height="21" viewBox="0 0 28 21" fill="none">
<path d="M6.25 13.5417H8.33333V12.5H9.375C9.94792 12.5 10.4167 12.0313 10.4167 11.4583V8.33333C10.4167 7.76042 9.94792 7.29167 9.375 7.29167H6.25V6.25H10.4167V4.16667H8.33333V3.125H6.25V4.16667H5.20833C4.63542 4.16667 4.16667 4.63542 4.16667 5.20833V8.33333C4.16667 8.90625 4.63542 9.375 5.20833 9.375H8.33333V10.4167H4.16667V12.5H6.25V13.5417ZM18.75 0H2.08333C0.927083 0 0.0104167 0.927083 0.0104167 2.08333L0 14.5833C0 15.7396 0.927083 16.6667 2.08333 16.6667H18.75C19.9062 16.6667 20.8333 15.7396 20.8333 14.5833V2.08333C20.8333 0.927083 19.9062 0 18.75 0ZM18.75 14.5833H2.08333V2.08333H18.75V14.5833ZM12.5 6.25L14.5833 4.16667L16.6667 6.25M16.6667 10.6771L14.5833 12.7604L12.5 10.6771" fill="#808080"/>
<mask fill="white">
<path d="M15.4891 19.7369C15.4181 19.6885 15.362 19.6213 15.3272 19.5433C15.2924 19.4652 15.2803 19.3794 15.2924 19.2958L15.9509 14.7455L12.535 11.5506C12.4731 11.4925 12.4283 11.4187 12.4059 11.3375C12.3835 11.2563 12.3843 11.171 12.4081 11.0912C12.432 11.0113 12.478 10.9402 12.541 10.8857C12.604 10.8313 12.6815 10.7957 12.7646 10.7831L17.3417 10.0875L19.2821 5.93799C19.3174 5.86267 19.3734 5.79908 19.4439 5.75441C19.5143 5.70973 19.5963 5.68576 19.6807 5.68519C19.765 5.68462 19.8483 5.70747 19.9212 5.75117C19.9941 5.79487 20.0536 5.85768 20.0931 5.9325L22.264 10.0524L26.8779 10.6833C26.9618 10.6947 27.0412 10.7291 27.1073 10.7827C27.1733 10.8362 27.2234 10.9067 27.2517 10.9862C27.2801 11.0657 27.2856 11.151 27.2677 11.2325C27.2498 11.3141 27.2092 11.3885 27.1504 11.4475L23.9145 14.6898L24.8266 19.229C24.8431 19.3115 24.8362 19.3964 24.8065 19.4743C24.7768 19.5521 24.7257 19.6197 24.6587 19.6694C24.5918 19.7191 24.5118 19.749 24.4278 19.7556C24.3438 19.7622 24.2591 19.7453 24.1833 19.7069L20.0131 17.5899L15.9622 19.7648C15.8893 19.8039 15.8066 19.822 15.7231 19.8171C15.6396 19.8122 15.5586 19.7845 15.4891 19.7369Z"/>
</mask>
<path d="M15.4891 19.7369C15.4181 19.6885 15.362 19.6213 15.3272 19.5433C15.2924 19.4652 15.2803 19.3794 15.2924 19.2958L15.9509 14.7455L12.535 11.5506C12.4731 11.4925 12.4283 11.4187 12.4059 11.3375C12.3835 11.2563 12.3843 11.171 12.4081 11.0912C12.432 11.0113 12.478 10.9402 12.541 10.8857C12.604 10.8313 12.6815 10.7957 12.7646 10.7831L17.3417 10.0875L19.2821 5.93799C19.3174 5.86267 19.3734 5.79908 19.4439 5.75441C19.5143 5.70973 19.5963 5.68576 19.6807 5.68519C19.765 5.68462 19.8483 5.70747 19.9212 5.75117C19.9941 5.79487 20.0536 5.85768 20.0931 5.9325L22.264 10.0524L26.8779 10.6833C26.9618 10.6947 27.0412 10.7291 27.1073 10.7827C27.1733 10.8362 27.2234 10.9067 27.2517 10.9862C27.2801 11.0657 27.2856 11.151 27.2677 11.2325C27.2498 11.3141 27.2092 11.3885 27.1504 11.4475L23.9145 14.6898L24.8266 19.229C24.8431 19.3115 24.8362 19.3964 24.8065 19.4743C24.7768 19.5521 24.7257 19.6197 24.6587 19.6694C24.5918 19.7191 24.5118 19.749 24.4278 19.7556C24.3438 19.7622 24.2591 19.7453 24.1833 19.7069L20.0131 17.5899L15.9622 19.7648C15.8893 19.8039 15.8066 19.822 15.7231 19.8171C15.6396 19.8122 15.5586 19.7845 15.4891 19.7369Z" fill="#808080"/>
<path d="M15.4891 19.7369L16.0531 18.9111L16.0535 18.9115L15.4891 19.7369ZM15.2924 19.2958L14.3027 19.1527L14.3027 19.1526L15.2924 19.2958ZM15.9509 14.7455L16.634 14.0152L17.0153 14.3719L16.9406 14.8888L15.9509 14.7455ZM12.535 11.5506L11.8519 12.281L11.8511 12.2802L12.535 11.5506ZM12.7646 10.7831L12.6141 9.79447L12.6144 9.79443L12.7646 10.7831ZM17.3417 10.0875L18.2476 10.5111L18.021 10.9958L17.492 11.0762L17.3417 10.0875ZM19.2821 5.93799L18.3762 5.51441L18.3766 5.51346L19.2821 5.93799ZM20.0931 5.9325L20.9776 5.46593L20.9778 5.46633L20.0931 5.9325ZM22.264 10.0524L22.1285 11.0432L21.619 10.9735L21.3793 10.5186L22.264 10.0524ZM26.8779 10.6833L26.7428 11.6741L26.7425 11.6741L26.8779 10.6833ZM27.1504 11.4475L27.8587 12.1534L27.8582 12.1539L27.1504 11.4475ZM23.9145 14.6898L22.9341 14.8868L22.8287 14.3622L23.2067 13.9834L23.9145 14.6898ZM24.8266 19.229L25.807 19.032L25.8071 19.0325L24.8266 19.229ZM24.1833 19.7069L23.7307 20.5986L23.7307 20.5986L24.1833 19.7069ZM20.0131 17.5899L19.5401 16.7089L20.0001 16.4619L20.4657 16.6983L20.0131 17.5899ZM15.9622 19.7648L16.4352 20.6459L16.4352 20.6459L15.9622 19.7648ZM14.9251 20.5627C14.7021 20.4105 14.5246 20.1988 14.4139 19.9505L16.2405 19.136C16.1994 19.0438 16.1341 18.9665 16.0531 18.9111L14.9251 20.5627ZM14.4139 19.9505C14.3031 19.7021 14.2632 19.4256 14.3027 19.1527L16.2821 19.4389C16.2974 19.3332 16.2817 19.2283 16.2405 19.136L14.4139 19.9505ZM14.3027 19.1526L14.9612 14.6023L16.9406 14.8888L16.2821 19.439L14.3027 19.1526ZM15.2678 15.4759L11.8519 12.281L13.2181 10.8203L16.634 14.0152L15.2678 15.4759ZM11.8511 12.2802C11.6562 12.0975 11.5138 11.8638 11.442 11.6038L13.3698 11.0713C13.3428 10.9736 13.2899 10.8876 13.219 10.8211L11.8511 12.2802ZM11.442 11.6038C11.3701 11.3435 11.3717 11.0666 11.4501 10.8046L13.3662 11.3777C13.3968 11.2754 13.3969 11.1692 13.3698 11.0713L11.442 11.6038ZM11.4501 10.8046C11.5285 10.5425 11.6799 10.3082 11.8871 10.1291L13.1949 11.6423C13.2761 11.5721 13.3356 11.4802 13.3662 11.3777L11.4501 10.8046ZM11.8871 10.1291C12.0942 9.95017 12.3467 9.83519 12.6141 9.79447L12.9151 11.7717C13.0163 11.7563 13.1138 11.7124 13.1949 11.6423L11.8871 10.1291ZM12.6144 9.79443L17.1915 9.09888L17.492 11.0762L12.9148 11.7717L12.6144 9.79443ZM16.4359 9.66395L18.3762 5.51441L20.1879 6.36157L18.2476 10.5111L16.4359 9.66395ZM18.3766 5.51346C18.493 5.26535 18.6775 5.05626 18.9083 4.90993L19.9794 6.59889C20.0693 6.5419 20.1418 6.45999 20.1875 6.36252L18.3766 5.51346ZM18.9083 4.90993C19.1388 4.76371 19.4044 4.68704 19.6739 4.68521L19.6874 6.68516C19.7882 6.68448 19.8898 6.65576 19.9794 6.59889L18.9083 4.90993ZM19.6739 4.68521C19.9431 4.68339 20.2065 4.75623 20.4355 4.89354L19.4069 6.6088C19.4902 6.65871 19.5869 6.68585 19.6874 6.68516L19.6739 4.68521ZM20.4355 4.89354C20.6645 5.03084 20.8524 5.22858 20.9776 5.46593L19.2086 6.39907C19.2549 6.48678 19.3237 6.5589 19.4069 6.6088L20.4355 4.89354ZM20.9778 5.46633L23.1487 9.58625L21.3793 10.5186L19.2084 6.39867L20.9778 5.46633ZM22.3995 9.06163L27.0134 9.6925L26.7425 11.6741L22.1285 11.0432L22.3995 9.06163ZM27.013 9.69245C27.2791 9.72873 27.5294 9.83759 27.7369 10.0058L26.4777 11.5596C26.5531 11.6207 26.6445 11.6607 26.7428 11.6741L27.013 9.69245ZM27.7369 10.0058C27.9445 10.174 28.1032 10.3966 28.1936 10.6504L26.3098 11.3221C26.3436 11.4168 26.4022 11.4984 26.4777 11.5596L27.7369 10.0058ZM28.1936 10.6504C28.2842 10.9043 28.303 11.1803 28.2444 11.4471L26.291 11.018C26.2682 11.1218 26.2759 11.2271 26.3098 11.3221L28.1936 10.6504ZM28.2444 11.4471C28.1858 11.7141 28.0523 11.9591 27.8587 12.1534L26.4421 10.7416C26.3661 10.8179 26.3138 10.914 26.291 11.018L28.2444 11.4471ZM27.8582 12.1539L24.6223 15.3962L23.2067 13.9834L26.4426 10.7411L27.8582 12.1539ZM24.8949 14.4928L25.807 19.032L23.8462 19.426L22.9341 14.8868L24.8949 14.4928ZM25.8071 19.0325C25.8603 19.2979 25.8385 19.5745 25.7409 19.8304L23.8721 19.1181C23.8339 19.2184 23.826 19.3251 23.8461 19.4254L25.8071 19.0325ZM25.7409 19.8304C25.6434 20.0864 25.4748 20.3089 25.2551 20.4721L24.0624 18.8667C23.9765 18.9305 23.9103 19.0178 23.8721 19.1181L25.7409 19.8304ZM25.2551 20.4721C25.0355 20.6353 24.7757 20.7313 24.5064 20.7525L24.3493 18.7587C24.248 18.7667 24.1481 18.803 24.0624 18.8667L25.2551 20.4721ZM24.5064 20.7525C24.2373 20.7737 23.969 20.7195 23.7307 20.5986L24.636 18.8152C24.5493 18.7712 24.4503 18.7507 24.3493 18.7587L24.5064 20.7525ZM23.7307 20.5986L19.5605 18.4816L20.4657 16.6983L24.636 18.8152L23.7307 20.5986ZM20.4861 18.471L16.4352 20.6459L15.4892 18.8838L19.5401 16.7089L20.4861 18.471ZM16.4352 20.6459C16.1973 20.7736 15.9302 20.8311 15.6642 20.8154L15.7819 18.8189C15.6829 18.813 15.5813 18.8343 15.4892 18.8838L16.4352 20.6459ZM15.6642 20.8154C15.3985 20.7997 15.1429 20.7117 14.9247 20.5624L16.0535 18.9115C15.9742 18.8572 15.8806 18.8247 15.7819 18.8189L15.6642 20.8154Z" fill="white" mask="url(#path-2-inside-1_934_3489)"/>
</symbol>

</svg>