<?xml version="1.0" encoding="UTF-8"?>
<svg xmlns="http://www.w3.org/2000/svg" xmlns:xlink="http://www.w3.org/1999/xlink" width="0" height="0">
<symbol id="State=Hover" width="35" height="25" viewBox="0 0 35 25" fill="none">
<g>
<path id="Vector" d="M0 13.6633V11.1869C0 6.12001 -1.04308e-07 3.58661 1.58461 1.95653C3.16923 0.326463 5.66398 0.255902 10.6535 0.114782C13.0178 0.0479148 15.4329 0 17.5 0C19.5671 0 21.9823 0.0479148 24.3465 0.114782C29.336 0.255902 31.8307 0.326463 33.4154 1.95653C35 3.58661 35 6.12001 35 11.1869V13.6633C35 18.7301 35 21.2635 33.4154 22.8935C31.8307 24.5236 29.3361 24.5941 24.3467 24.7354C21.9823 24.8022 19.5671 24.8502 17.5 24.8502C15.4329 24.8502 13.0177 24.8022 10.6533 24.7354C5.66389 24.5941 3.1692 24.5236 1.58459 22.8935C-2.08616e-07 21.2635 0 18.7301 0 13.6633Z" fill="#F44336"/>
<path id="Vector_2" d="M21 12.4252L14.875 15.9252V8.92517L21 12.4252Z" fill="white" stroke="white" stroke-width="1.5" stroke-linecap="round" stroke-linejoin="round"/>
</g>
</symbol>

<symbol id="State=Hover (1)" width="30" height="30" viewBox="0 0 30 30" fill="none">
<path d="M15 30C23.2842 30 30 23.2842 30 15C30 6.71572 23.2842 0 15 0C6.71572 0 0 6.71572 0 15C0 23.2842 6.71572 30 15 30Z" fill="#2AABEE"/>
<path d="M24 9L4.5 15.75L11.25 18M24 9L11.25 18L24 9ZM24 9L18 24.75L11.25 18" fill="white"/>
<path d="M24 9L4.5 15.75L11.25 18M24 9L11.25 18M24 9L18 24.75L11.25 18" stroke="white" stroke-linecap="round" stroke-linejoin="round"/>
<path d="M11 19L24.5 8.5" stroke="#2AABEE"/>
</symbol>

</svg>